<svg width="120" height="120" viewBox="0 0 120 120" fill="none" xmlns="http://www.w3.org/2000/svg">
  <!-- Background Circle -->
  <circle cx="60" cy="60" r="58" fill="url(#gradient1)" stroke="#ffffff" stroke-width="4"/>
  
  <!-- Brain/Mind Symbol -->
  <path d="M40 45C40 35 50 28 60 28C70 28 80 35 80 45C80 50 78 54 75 57C82 60 85 68 82 75C80 80 75 82 70 82H50C45 82 40 80 38 75C35 68 38 60 45 57C42 54 40 50 40 45Z" fill="#ffffff" opacity="0.9"/>
  
  <!-- Heart Symbol (Mental Health) -->
  <path d="M52 65C52 62 54 60 57 60C58 60 59 60.5 60 61C61 60.5 62 60 63 60C66 60 68 62 68 65C68 68 60 75 60 75C60 75 52 68 52 65Z" fill="#FF6B9D"/>
  
  <!-- Healing Waves -->
  <path d="M30 60C35 55 35 65 40 60C45 55 45 65 50 60" stroke="#4ECDC4" stroke-width="2" fill="none" opacity="0.7"/>
  <path d="M70 60C75 55 75 65 80 60C85 55 85 65 90 60" stroke="#4ECDC4" stroke-width="2" fill="none" opacity="0.7"/>
  
  <!-- Plus Sign (Health) -->
  <rect x="57" y="40" width="6" height="2" fill="#45B7D1" rx="1"/>
  <rect x="59" y="38" width="2" height="6" fill="#45B7D1" rx="1"/>
  
  <defs>
    <linearGradient id="gradient1" x1="0%" y1="0%" x2="100%" y2="100%">
      <stop offset="0%" style="stop-color:#667eea;stop-opacity:1" />
      <stop offset="100%" style="stop-color:#764ba2;stop-opacity:1" />
    </linearGradient>
  </defs>
</svg>
